<svg height="21" viewBox="0 0 18 21" width="18" xmlns="http://www.w3.org/2000/svg"><path d="m1113.10588 480.733811-4.53542-2.618811 4.53662-2.618811c.85325-.493013 1.14607-1.583934.65305-2.438689-.49271-.853556-1.58513-1.146067-2.43839-.653354l-4.53661 2.61911v-5.237921c0-.985726-.79961-1.785335-1.78534-1.785335-.98572 0-1.78533.799609-1.78533 1.785335v5.237921l-4.53662-2.61911c-.85325-.492713-1.94567-.200202-2.43839.653354-.49301.853556-.2002 1.945676.65306 2.438689l4.53781 2.618811-4.53661 2.618811c-.85356.493012-1.14607 1.585133-.65336 2.438689.33028.572434.93088.893117 1.54797.893117.303 0 .6099-.077024.89072-.238564l4.53662-2.62031v5.23912c0 .984527.79841 1.784137 1.78413 1.784137.98573 0 1.78534-.79961 1.78534-1.785335v-5.237922l4.53661 2.619111c.28083.162739.58772.238864.89072.238864.61709 0 1.2165-.319784 1.54767-.893417.49182-.852357.2002-1.944478-.65425-2.43749z" fill="#d00169" fill-opacity=".4" fill-rule="evenodd" transform="translate(-1096 -468)"/></svg>