<svg height="22" viewBox="0 0 18 22" width="18" xmlns="http://www.w3.org/2000/svg"><path d="m150.883978 33.8262727v-5.8230012c0-3.2841673-2.223396-5.9306454-5.294659-6.6705283v-.7439707c0-.847527-.745333-1.5887725-1.59286-1.5887725-.842077 0-1.586048.7398829-1.586048 1.5887725v.7439707c-3.071263.7385204-5.294659 3.386361-5.294659 6.6705283v5.8216386l-2.115752 2.1194989v1.0607714h17.99973v-1.0607714zm-6.887519 6.3537276h.425807c.743971-.103897 1.27095-.6359859 1.483854-1.2709499.109006-.2129037.212903-.5266386.212903-.847527h-4.236954c0 1.1670529.950062 2.1184769 2.11439 2.1184769z" fill="#fff" fill-rule="evenodd" transform="translate(-135 -19)"/></svg>