<svg height="24" viewBox="0 0 24 24" width="24" xmlns="http://www.w3.org/2000/svg"><path d="m75.2637808 400.380055c-.2073424-.249863-.4247671-.491397-.6509589-.724165-2.1830137-2.251835-5.2361644-3.65589-8.6128219-3.65589s-6.4298082 1.404055-8.6128219 3.65589c-.2261918.232768-.4453699.474302-.6509589.724165-1.7087124 2.075616-2.7362192 4.729424-2.7362192 7.619945s1.0275068 5.544329 2.7362192 7.619945c.2073424.249863.4247671.491397.6509589.724165 2.1830137 2.251835 5.2361644 3.65589 8.6128219 3.65589s6.4298082-1.404055 8.6128219-3.65589c.2261918-.232768.4453699-.474302.6509589-.724165 1.7087124-2.075616 2.7362192-4.729424 2.7362192-7.619945s-1.0275068-5.544329-2.7362192-7.619945zm-5.7963835 18.072109c.9744657-.935013 1.8047123-2.248328 2.4232328-3.825534.7070685.315178 1.3610959.685151 1.9467398 1.102904-1.2089863 1.224329-2.7020274 2.167671-4.3699726 2.72263zm-11.3047672-2.72263c.5856439-.416 1.2396713-.785972 1.9467398-1.102904.6185205 1.575452 1.4487671 2.890521 2.4232328 3.825534-1.6679452-.554959-3.1609863-1.498301-4.3699726-2.72263zm4.3699726-18.181698c-.9744657.935013-1.8047123 2.248328-2.4232328 3.825534-.7070685-.315178-1.3610959-.685151-1.9467398-1.102904 1.2089863-1.224329 2.7020274-2.167671 4.3699726-2.72263zm11.3047672 2.72263c-.5856439.416-1.2396713.785972-1.9467398 1.102904-.6185205-1.575452-1.4487671-2.890521-2.4232328-3.825534 1.6679452.554959 3.1609863 1.498301 4.3699726 2.72263zm-8.3305206 7.236383h-5.5820274c.0425206-1.753424.3129863-3.400767.7583562-4.849534 1.4641096.527781 3.097863.844274 4.8236712.895562zm0 .986302v3.953972c-1.7258082.051288-3.3578082.367781-4.8236712.895562-.4453699-1.448767-.7158356-3.09611-.7583562-4.849534zm.9863014 0h5.5820274c-.0425206 1.753424-.3129863 3.400767-.7583562 4.849534-1.4641096-.527781-3.097863-.844274-4.8236712-.895562zm0-.986302v-3.953972c1.7258082-.051288 3.3578082-.367781 4.8236712-.895562.4453699 1.448767.7158356 3.09611.7583562 4.849534zm4.5032329-5.775781c-1.3628494.489644-2.8883288.785973-4.5032329.835507v-5.540822c1.8630137.27222 3.4932603 2.070357 4.5032329 4.705315zm-5.4895343.835507c-1.6149041-.049534-3.1403835-.345863-4.5032329-.835507 1.0099726-2.633643 2.6402192-4.433095 4.5032329-4.705315zm-4.5032329 11.702357c1.3628494-.489644 2.8883288-.785973 4.5032329-.835507v5.540822c-1.8630137-.27222-3.4932603-2.070357-4.5032329-4.705315zm5.4895343-.835507c1.6149041.049534 3.1403835.345863 4.5032329.835507-1.0099726 2.634958-2.6402192 4.433095-4.5032329 4.705315zm-6.7107945-11.135562c-.4979726 1.561863-.7978083 3.33063-.8420822 5.208986h-3.942137c.109589-2.465753 1.0310137-4.724164 2.5069589-6.510465.6833973.496657 1.4470137.935013 2.2772603 1.301479zm-.8438357 6.195288c.044274 1.878356.3441096 3.647123.8420822 5.208986-.8302465.366466-1.593863.804822-2.2755068 1.301479-1.4741918-1.786301-2.3973699-4.044712-2.5069589-6.510465zm13.2791233 5.208986c.4979726-1.561863.7978083-3.33063.8420822-5.208986h3.9403836c-.1095891 2.465753-1.0310137 4.724164-2.5069589 6.510465-.6816439-.496657-1.4452603-.935013-2.2755069-1.301479zm.8438357-6.195288c-.044274-1.878356-.3441096-3.647123-.8420822-5.208986.8302465-.366466 1.593863-.804822 2.2755068-1.301479 1.4741918 1.786301 2.3973699 4.044712 2.5069589 6.510465z" fill="#fff" fill-rule="evenodd" transform="translate(-54 -396)"/></svg>