<svg height="19" viewBox="0 0 23 19" width="23" xmlns="http://www.w3.org/2000/svg"><path d="m0 1.5c0-.82842712.66354084-1.5 1.50909424-1.5h19.98181156c.8334497 0 1.5090942.66579723 1.5090942 1.5 0 .82842712-.6635408 1.5-1.5090942 1.5h-19.98181156c-.83344974 0-1.50909424-.66579723-1.50909424-1.5zm0 8c0-.82842712.66642015-1.5 1.50863659-1.5h13.98272681c.833197 0 1.5086366.66579723 1.5086366 1.5 0 .8284271-.6664201 1.5-1.5086366 1.5h-13.98272681c-.83319698 0-1.50863659-.6657972-1.50863659-1.5zm0 8c0-.8284271.66543579-1.5 1.5032506-1.5h16.9934988c.8302224 0 1.5032506.6657972 1.5032506 1.5 0 .8284271-.6654358 1.5-1.5032506 1.5h-16.9934988c-.83022238 0-1.5032506-.6657972-1.5032506-1.5z" fill="#02004d" fill-opacity=".8" fill-rule="evenodd"/></svg>