<svg height="42" viewBox="0 0 30 42" width="30" xmlns="http://www.w3.org/2000/svg"><g fill="#02004d" fill-rule="evenodd"><path d="m7.46903779 11.4382979-.5335027.2680851v.5361702l8.00254051 3.5744681v-.4468085l.2667513-.0893617z"/><path d="m8.80279454 4.2893617-.26675135.17872341v.1787234l6.40203241 2.94893617v-.1787234l.0889171-.08936171z"/><path d="m10.2254684 2.77021277v.2680851l4.6236901 2.14468085 4.62369-2.14468085v-.2680851l-.2667513-.08936171-4.3569387 1.78723405-4.2680216-1.87659575z"/><path d="m11.6481423 1.60851064v.1787234l3.2010162 1.51914894 3.2899333-1.51914894v-.1787234l-.2667514-.17872341-3.0231819 1.60851064-2.9342649-1.60851064z"/><path d="m.17783423 14.6553191v.625532l6.40203239 2.680851v-.6255319l-6.04636392-2.8595745z"/><path d="m23.2962845 21.3574468 6.4020324-2.8595745v-.8042553l-.6224198-.2680851-5.7796126 2.6808511z"/><path d="m.17783423 14.6553191 6.40203239 3.0382979v-6.0765957z"/><path d="m2.22292791 14.8340426 4.35693871-2.0553192v-.4468085l-4.89044141 2.2340425z"/><path d="m6.57986662 12.7787234v-.4468085"/><path d="m.26675135 14.6553191h-.08891712v19.6595745l6.49094951 2.8595745v-19.6595745zm.80025405 1.9659575 1.86725945.8042553v1.7872341l-1.86725945-.8042554zm0 3.5744681 1.86725945.8042553v1.787234l-1.86725945-.8042553zm0 3.4851064 1.86725945.8042553v1.787234l-1.86725945-.8042553zm0 3.574468 1.86725945.8042554v1.787234l-1.86725945-.8042553zm0 3.7531915 1.86725945.8042554v1.787234l-1.86725945-.8042553zm4.26802159 3.7531915-1.77834233-.8042553v-1.787234l1.86725945.8042553v1.787234zm0-3.7531915-1.77834233-.8042553v-1.787234l1.86725945.8042553v1.787234zm0-3.574468-1.77834233-.8042554v-1.787234l1.86725945.8042553v1.7872341zm0-3.4851064-1.77834233-.8042553v-1.7872341l1.86725945.8042553v1.7872341zm0-3.5744681-1.77834233-.8042553v-1.7872341l1.86725945.8042553v1.7872341z"/><path d="m29.6983169 17.693617-6.4020324 3.0382979v-6.0765958z"/><path d="m27.6532232 17.8723404-4.3569387-2.0553191v-.4468085l4.8904414 2.2340425z"/><path d="m23.2962845 15.8170213v-.4468085"/><path d="m29.6093998 17.693617-6.3131153 2.8595745v.1787234.0893617 16.5319149l6.4020324-2.9489362v-16.7106383zm-2.9342648 5.9872341v1.0723404l-.9780883.4468085v-1.0723404zm-.9780883-.7148937v-1.0723404l.9780883-.4468085v1.0723404zm.9780883 3.0382979v1.0723404l-.9780883.4468086v-1.0723405zm0 2.3234043v1.0723404l-.9780883.4468085v-1.0723404zm.2667513.9829787v-1.0723404l.8002541-.3574468v1.0723404zm0-2.3234043v-1.0723404l.8002541-.3574468v1.0723404zm0-2.3234042v-1.0723404l.8002541-.3574468v1.0723404zm0-2.2340426v-1.0723404l.8002541-.3574468v1.0723404zm-2.4896793 0 1.0670054-.4468085v1.0723404l-1.0670054.4468086zm0 2.2340426 1.0670054-.4468085v1.0723404l-1.0670054.4468085zm0 2.3234042 1.0670054-.4468085v1.0723405l-1.0670054.4468085zm0 2.3234043 1.0670054-.4468085v1.0723404l-1.0670054.4468085zm4.2680216-.8042553-.800254.3574468v-1.1617021l.800254-.3574468zm0-2.3234043-.800254.3574468v-1.0723404l.800254-.3574468zm0-2.3234042-.800254.3574468v-1.0723404l.800254-.3574469zm0-2.2340426-.800254.3574468v-1.0723404l.800254-.3574468z"/><path d="m18.6725945 12.5106383-.711337.5361702-2.8453477 1.3404255-3.4677675-1.6085106-1.511591-1.1617021-1.15592253-.893617-2.04509368.9829787 8.00254051 3.6638298 7.9136234-3.6638298-1.8672595-.893617z"/><path d="m6.93553509 11.706383v25.6468085l8.00254051 3.6638298v-25.6468085zm6.66878371 26.2723404-5.51286119-2.5021277v-1.0723404l5.51286119 2.5021277zm0-2.0553191-5.51286119-2.5021277v-1.0723404l5.51286119 2.5021276zm0-1.9659575-5.51286119-2.5021277v-1.0723404l5.51286119 2.5021277zm0-2.0553191-5.51286119-2.5021277v-1.0723404l5.51286119 2.5021276zm0-2.0553192-5.51286119-2.5021276v-1.0723405l5.51286119 2.5021277zm0-1.9659574-5.51286119-2.5021277v-1.0723404l5.51286119 2.5021276zm0-2.0553192-5.51286119-2.5021276v-.9829788l5.51286119 2.5021277zm0-1.9659574-5.51286119-2.5021277v-1.0723404l5.51286119 2.5021276zm0-2.0553192-5.51286119-2.5021276v-1.0723405l5.51286119 2.5021277zm0-1.9659574-5.51286119-2.5021277v-1.0723404l5.51286119 2.5021276zm0-2.0553192-5.51286119-2.5021276v-1.0723405l5.51286119 2.5021277z"/><path d="m15.2048269 15.5489362v25.4680851l7.6468721-3.4851064v-25.4680851zm6.6687838 19.6595744-5.5128613 2.5021277v-1.0723404l5.5128613-2.5021277zm0-2.0553191-5.5128613 2.5021276v-1.0723404l5.5128613-2.5021276zm0-1.9659575-5.5128613 2.5021277v-1.0723404l5.5128613-2.5021277zm0-2.0553191-5.5128613 2.5021277v-1.0723405l5.5128613-2.5021276zm0-1.9659575-5.5128613 2.5021277v-1.0723404l5.5128613-2.5021277zm0-2.0553191-5.5128613 2.5021277v-1.0723405l5.5128613-2.5021276zm0-1.9659574-5.5128613 2.5021276v-1.0723404l5.5128613-2.5021277zm0-2.0553192-5.5128613 2.5021277v-1.0723405l5.5128613-2.5021276zm0-1.9659574-5.5128613 2.5021276v-1.0723404l5.5128613-2.5021277zm0-2.0553192-5.5128613 2.5021277v-1.0723405l5.5128613-2.5021276zm0-2.0553191-5.5128613 2.5021276v-1.0723404l5.5128613-2.5021277z"/><path d="m8.53604319 4.46808511 6.40203241 2.94893617 6.3131153-2.94893617-6.4020324-2.94893617z"/><path d="m10.2254684 2.77021277 4.7126072 2.14468085 4.62369-2.14468085-4.7126071-2.05531915z"/><path d="m10.2254684 2.77021277 4.7126072 2.14468085v1.60851064l-4.7126072-2.14468086z"/><path d="m19.4728485 2.77021277-4.62369 2.14468085v1.60851064l4.62369-2.14468086z"/><path d="m11.6481423 1.60851064 3.2899333 1.42978723 3.2010162-1.42978723-3.2899333-1.51914894z"/><path d="m11.6481423 1.60851064 3.2899333 1.42978723v1.16170213l-3.2899333-1.51914894z"/><path d="m18.1390918 1.60851064-3.2899333 1.42978723v1.16170213l3.2899333-1.51914894z"/><path d="m12.5373134 1.69787234 2.3118451-1.07234042v-.26808511l-2.6675135 1.16170213z"/><path d="m17.3388377 1.69787234-2.4896792-1.07234042v-.26808511l2.7564306 1.16170213z"/><path d="m15.2048269 7.50638298v7.05957442l6.1352811-2.8595744v-6.97021279zm5.5128613 3.39574472-4.9793586 2.2340425v-.9829787l4.9793586-2.23404256zm0-1.87659579-4.9793586 2.23404259v-.9829788l4.9793586-2.23404251zm0-1.78723404-4.9793586 2.23404256v-.98297873l4.9793586-2.23404255z"/><path d="m8.53604319 4.46808511v7.14893619l6.40203241 2.9489361v-7.23829783zm5.51286121 8.48936169-4.97935851-2.2340425v-.89361707l4.97935851 2.23404257zm0-1.787234-4.97935851-2.23404259v-.98297872l4.97935851 2.23404251zm0-1.78723408-4.97935851-2.23404255v-.98297872l4.97935851 2.23404255z"/><path d="m21.7846936 32.706383v.4468085l-5.5128613 2.5021276v-.3574468l-1.1559225.5361703-1.511591-.625532v.7148937l-5.51286119-2.5021277v-.6255319l-8.00254049-3.4851064v4.9148936l15.02699268 6.9702128 14.49349-6.7914894v-5.3617021zm-8.1803748 5.1829787-5.51286119-2.5021277v-1.0723404l5.51286119 2.5021277zm8.2692919-2.7702128-5.5128613 2.5021277v-1.0723404l5.5128613-2.5021277z"/></g></svg>