<svg height="25" viewBox="0 0 8 25" width="8" xmlns="http://www.w3.org/2000/svg"><path d="m148.056305 22.249734c-.002586.5378917-.065942 1.0757834-.189422 1.6013915-.126065.5527612-.371085 1.3938635-.737644 2.5252463-.522364 1.6013914-.891509 2.8762982-1.106144 3.8260132-.206877.9219153-.332942 1.8587002-.383368 2.8032432.007111.3432938-.085983.6794761-.267647.9697566-.189421.2094674-.464826.3180802-.747988.2902805-.24502.0206881-.487453-.070469-.658773-.2476112-.166794-.2372671-.252778-.5223756-.247606-.8152421-.065942-.7602892-.118954-1.2904228-.161622-1.5910474s-.151279-.7855029-.325831-1.454635c-.275404-1.0731973-.629034-2.2278542-1.060889-3.4626777-.514606-1.4520489-.83785-2.4444332-.969734-2.9823249-.135763-.5779749-.204291-1.171466-.199119-1.7649571-.015516-.9852727.318073-1.9420993.939349-2.7049745.63356-.8184746 1.621396-1.2781393 2.65384-1.2399955.969734-.0174556 1.891628.4266929 2.482519 1.1973262.676875.8682555 1.022747 1.9492109.980079 3.0502079zm-3.53048 13.3341538c-2.967387 0-4.454959 3.5887461-2.356454 5.6872995 2.099151 2.0985533 5.687168.6115931 5.687168-2.3558622 0-1.8386586-1.492098-3.3314373-3.330714-3.3314373z" fill="#02004d" fill-rule="evenodd" transform="translate(-141 -18)"/></svg>