<svg height="19" viewBox="0 0 22 19" width="22" xmlns="http://www.w3.org/2000/svg"><path d="m47.8134133 47.9767603-9.6968266-8.8813467c-.1044-.0966666-.25984-.1237333-.3913067-.0634133-.1314667.0572267-.2161467.1871467-.2161467.3306v4.9965067c-2.01028.1028533-11.5091333 1.1719866-11.5091333 12.2221466 0 .1527334.09512.28884.2385733.3414267.1388134.0483333.30508.0108267.4017467-.1086533 3.6779733-4.3936934 6.61548-5.3182134 8.4312667-5.3182134 1.2744533 0 2.12512.4516267 2.4375466.6511467v4.9767867c0 .1419066.08468.2733733.2161467.3306.0467867.0212666.0966667.0317066.1465467.0317066.0889333 0 .1767066-.0332533.24476-.09512l9.6968266-8.88096c.0754-.0696.1175467-.16472.1175467-.2675733s-.0436933-.1964267-.1175467-.26564z" fill="#fff" fill-rule="evenodd" transform="translate(-26 -39)"/></svg>