<svg xmlns="http://www.w3.org/2000/svg" width="32" height="32" viewBox="0 0 32 32"><g><g><path fill="#fff" d="M21.893 19.966v-.505c0-.21-.033-.354-.108-.446-.067-.093-.175-.135-.325-.135-.158 0-.266.042-.333.135-.075.092-.1.244-.1.446v.505zm-.386-1.953c.455 0 .809.126 1.053.37.244.253.362.615.362 1.086v1.272h-1.895v.935c0 .26.026.438.093.539.067.1.177.151.337.151.168 0 .286-.042.345-.126.067-.084.101-.278.101-.564v-.228h1.02v.253c0 .514-.119.893-.371 1.154-.253.252-.624.387-1.12.387-.438 0-.792-.143-1.045-.413-.26-.269-.387-.648-.387-1.128V19.47c0-.429.143-.783.421-1.052.286-.27.64-.404 1.086-.404zm4.522.673c0-1.979-1.6-3.587-3.587-3.587H9.987A3.59 3.59 0 0 0 6.4 18.686v2.889a3.59 3.59 0 0 0 3.587 3.587h12.455a3.585 3.585 0 0 0 3.587-3.587zM10.122 5.962l1.5 4.472v2.947h1.254V10.3l1.465-4.337h-1.28l-.775 2.956h-.084l-.817-2.956zm4.76 2.182c-.296.253-.448.59-.448 1.012V12c0 .464.143.835.439 1.113.296.27.684.414 1.183.414.506 0 .903-.135 1.199-.405.287-.262.43-.633.43-1.097V9.19c0-.422-.143-.76-.438-1.03-.305-.26-.676-.396-1.14-.396-.516 0-.922.127-1.226.38zm3.703 4.328c0 .336.068.58.194.74.135.16.328.245.59.245.21 0 .42-.06.648-.177.219-.118.438-.286.64-.505v.598h1.12V7.899h-1.12v4.16a1.427 1.427 0 0 1-.345.295c-.127.075-.228.118-.312.118a.285.285 0 0 1-.227-.093.476.476 0 0 1-.076-.278V7.9h-1.112zM32 16c0 8.834-7.166 16-16 16S0 24.834 0 16 7.166 0 16 0s16 7.166 16 16zm-17.429 6.173c.11-.068.21-.16.303-.261V18.13h.99v4.968h-.99v-.539c-.177.202-.37.354-.571.455-.193.11-.386.16-.57.16-.227 0-.403-.076-.521-.22-.117-.15-.176-.37-.176-.664v-4.16h.99v3.814c0 .118.025.202.067.253.042.059.11.084.202.084.067 0 .167-.042.276-.11zm3.888-2.796c0-.177-.034-.295-.11-.388-.067-.084-.176-.126-.311-.126a.448.448 0 0 0-.202.05.58.58 0 0 0-.21.152v3.09c.083.085.16.144.235.178.076.033.16.059.244.059.118 0 .21-.043.261-.11.06-.067.093-.185.093-.345zm.784-.985c.16.21.245.522.245.926v2.762c0 .345-.076.615-.237.808-.152.186-.38.278-.676.278a1.13 1.13 0 0 1-.515-.11 1.31 1.31 0 0 1-.431-.336v.379h-1.006V16.37h1.006v2.164c.135-.152.279-.261.43-.346.153-.075.305-.117.457-.117.321 0 .558.11.727.32zm-3.538-5.955c-.084-.084-.118-.202-.118-.353V9.11c0-.118.034-.219.127-.286a.47.47 0 0 1 .328-.11c.152 0 .27.034.362.11a.335.335 0 0 1 .135.286v2.973c0 .151-.042.26-.135.353a.551.551 0 0 1-.362.117.468.468 0 0 1-.337-.117zM9.171 16.37h3.435v.976h-1.162V23.1h-1.12v-5.752H9.171z"/></g></g></svg>