<svg xmlns="http://www.w3.org/2000/svg" width="32" height="32" viewBox="0 0 32 32"><g><g><path fill="#fff" d="M23.992 11.857c.007.172.012.344.012.517 0 5.284-4.022 11.38-11.375 11.38-2.258 0-4.36-.664-6.129-1.797.313.033.631.05.954.05a8.004 8.004 0 0 0 4.965-1.707 4.002 4.002 0 0 1-3.735-2.782c.244.05.495.074.753.074.364 0 .717-.05 1.052-.14a3.99 3.99 0 0 1-3.207-3.913c0-.017 0-.041.002-.058a3.876 3.876 0 0 0 1.81.5 3.984 3.984 0 0 1-1.78-3.322c0-.739.199-1.42.542-2.01a11.335 11.335 0 0 0 8.242 4.176 3.997 3.997 0 0 1 3.894-4.907 4.01 4.01 0 0 1 2.918 1.256 7.818 7.818 0 0 0 2.539-.969 4.008 4.008 0 0 1-1.758 2.216 7.99 7.99 0 0 0 2.296-.632 7.986 7.986 0 0 1-1.995 2.068zM16 0C7.39 0 .41 6.983.41 15.59S7.39 31.18 16 31.18s15.59-6.983 15.59-15.59S24.61 0 16 0z"/></g></g></svg>