<svg xmlns="http://www.w3.org/2000/svg" width="32" height="32" viewBox="0 0 32 32"><g><g><path fill="#fff" d="M25.74 11.126a5.284 5.284 0 0 0-5.276-5.284h-8.928a5.291 5.291 0 0 0-5.284 5.284v8.928a5.284 5.284 0 0 0 5.284 5.276h8.928a5.277 5.277 0 0 0 5.275-5.276zm5.85 4.464c0 8.607-6.983 15.59-15.59 15.59S.41 24.197.41 15.59 7.393 0 16 0s15.59 6.983 15.59 15.59zm-12.34 0c0 1.789-1.461 3.25-3.25 3.25a3.257 3.257 0 0 1-3.25-3.25c0-1.789 1.461-3.25 3.25-3.25s3.25 1.461 3.25 3.25zm3.043-5.178a1.117 1.117 0 0 0-2.231 0 1.117 1.117 0 0 0 2.231 0zm-1.42 5.178A4.885 4.885 0 0 0 16 10.716a4.885 4.885 0 0 0-4.874 4.874A4.885 4.885 0 0 0 16 20.464a4.885 4.885 0 0 0 4.874-4.874zm3.25-4.464v8.928a3.663 3.663 0 0 1-3.66 3.66h-8.927a3.663 3.663 0 0 1-3.66-3.66v-8.928a3.663 3.663 0 0 1 3.66-3.66h8.928a3.663 3.663 0 0 1 3.66 3.66z"/></g></g></svg>