<svg height="18" viewBox="0 0 21 18" width="21" xmlns="http://www.w3.org/2000/svg"><path d="m22.07492 14.0018572c-.1721822.0128987-.3338655.0902907-.4499536.2180775l-4.9494892 5.3994428c-.2693722.2729719-.2576734.7157262.0257973.9736996.2846706.2588732.726525.2282764.9724997-.0668931l3.7754104-4.1197749v10.4191248c-.0047995.3563633.3185671.6890289.6749303.6890289.3563633 0 .6797299-.3326656.6749304-.6890289v-10.4191248l3.7754104 4.1197749c.2459746.2951695.687829.3257663.9724997.0668931.2834707-.2579734.2951695-.7007277.0257973-.9736996l-4.9494893-5.3994428c-.1394856-.1535842-.3422646-.2333759-.5483434-.2180775zm-9.4067293 11.2347407c-.3749613.0035996-.6761303.3140676-.6680311.6890289v5.3994428c0 .3725616.3023688.6749304.6749304.6749304h18.8980499c.3725616 0 .6749304-.3023688.6749304-.6749304v-5.3994428c.0059994-.3761612-.2987692-.6842294-.6749304-.6842294s-.6809297.3080682-.6749303.6842294v4.7245125h-17.5481893v-4.7245125c.0080992-.3809607-.3011689-.6926285-.6818296-.6890289z" fill="#fff" fill-rule="evenodd" transform="translate(-12 -14)"/></svg>